<svg width="169" height="169" viewBox="0 0 169 169" fill="none" xmlns="http://www.w3.org/2000/svg">
<g clip-path="url(#clip0)">
<mask id="mask0" style="mask-type:alpha" maskUnits="userSpaceOnUse" x="0" y="-1" width="169" height="169">
<rect y="-1" width="169" height="169" fill="url(#paint0_linear)"/>
</mask>
<g mask="url(#mask0)">
<path d="M155.797 39.6094H132.031V34.3281H150.516C151.216 34.3281 151.888 34.0499 152.383 33.5547C152.878 33.0595 153.156 32.3878 153.156 31.6875V18.4844C153.148 15.4429 152.094 12.4967 150.171 10.1406C148.248 7.78442 145.572 6.16185 142.594 5.54531V5.28125H36.9688C33.4671 5.28125 30.1088 6.67229 27.6327 9.14836C25.1567 11.6244 23.7656 14.9827 23.7656 18.4844V39.6094H13.2031C11.104 39.6156 9.09272 40.4523 7.60844 41.9366C6.12416 43.4208 5.28752 45.4322 5.28125 47.5312V132.031C5.28752 134.13 6.12416 136.142 7.60844 137.626C9.09272 139.11 11.104 139.947 13.2031 139.953H73.9375V147.875H58.0938C57.3934 147.875 56.7218 148.153 56.2265 148.648C55.7313 149.144 55.4531 149.815 55.4531 150.516V161.078C55.4531 161.778 55.7313 162.45 56.2265 162.945C56.7218 163.441 57.3934 163.719 58.0938 163.719H110.906C111.607 163.719 112.278 163.441 112.773 162.945C113.269 162.45 113.547 161.778 113.547 161.078V150.516C113.547 149.815 113.269 149.144 112.773 148.648C112.278 148.153 111.607 147.875 110.906 147.875H95.0625V139.953H119.171L127.199 151.968C127.436 152.333 127.761 152.633 128.144 152.841C128.527 153.048 128.955 153.157 129.391 153.157C129.826 153.157 130.255 153.048 130.637 152.841C131.02 152.633 131.345 152.333 131.582 151.968L139.61 139.953H155.797C157.896 139.947 159.907 139.11 161.392 137.626C162.876 136.142 163.712 134.13 163.719 132.031V47.5312C163.712 45.4322 162.876 43.4208 161.392 41.9366C159.907 40.4523 157.896 39.6156 155.797 39.6094ZM132.031 18.4844C132.031 16.3834 132.866 14.3684 134.352 12.8828C135.837 11.3971 137.852 10.5625 139.953 10.5625C142.054 10.5625 144.069 11.3971 145.555 12.8828C147.04 14.3684 147.875 16.3834 147.875 18.4844V29.0469H132.031V18.4844ZM108.266 153.156V158.438H60.7344V153.156H108.266ZM79.2188 147.875V139.953H89.7812V147.875H79.2188ZM116.188 134.672H13.2031C12.5028 134.672 11.8311 134.394 11.3359 133.898C10.8407 133.403 10.5625 132.732 10.5625 132.031V129.391H116.188V134.672ZM116.188 124.109H10.5625V47.5312C10.5625 46.8309 10.8407 46.1593 11.3359 45.664C11.8311 45.1688 12.5028 44.8906 13.2031 44.8906H23.7656V116.188C23.7656 116.888 24.0438 117.559 24.539 118.055C25.0343 118.55 25.7059 118.828 26.4062 118.828H116.188V124.109ZM116.188 66.0156V113.547H29.0469V18.4844C29.0531 16.3853 29.8898 14.374 31.3741 12.8897C32.8583 11.4054 34.8697 10.5688 36.9688 10.5625H129.47C127.714 12.8308 126.758 15.616 126.75 18.4844V53.0766C123.772 53.6931 121.096 55.3157 119.173 57.6718C117.249 60.0279 116.195 62.9741 116.188 66.0156ZM129.391 145.762L122.235 135.015L124.109 133.114L127.516 136.547C128.016 137.038 128.689 137.313 129.391 137.313C130.092 137.313 130.765 137.038 131.265 136.547L134.672 133.114L136.547 135.015L129.391 145.762ZM137.312 128.308L136.547 127.516C136.048 127.021 135.374 126.743 134.672 126.743C133.969 126.743 133.296 127.021 132.797 127.516L129.391 130.949L125.984 127.516C125.486 127.021 124.812 126.743 124.109 126.743C123.407 126.743 122.733 127.021 122.235 127.516L121.469 128.308V87.1406H137.312V128.308ZM137.312 81.8594H121.469V76.5781H137.312V81.8594ZM137.312 71.2969H121.469V66.0156C121.469 63.9146 122.303 61.8997 123.789 60.414C125.275 58.9284 127.29 58.0938 129.391 58.0938C131.492 58.0938 133.507 58.9284 134.992 60.414C136.478 61.8997 137.312 63.9146 137.312 66.0156V71.2969ZM158.438 132.031C158.438 132.732 158.159 133.403 157.664 133.898C157.169 134.394 156.497 134.672 155.797 134.672H142.594V129.391H158.438V132.031ZM158.438 124.109H142.594V66.0156C142.586 62.9741 141.532 60.0279 139.609 57.6718C137.685 55.3157 135.01 53.6931 132.031 53.0766V44.8906H155.797C156.497 44.8906 157.169 45.1688 157.664 45.664C158.159 46.1593 158.438 46.8309 158.438 47.5312V124.109Z" fill="#027BFD" fill-opacity="0.4"/>
<path d="M36.9688 18.4844H118.828V23.7656H36.9688V18.4844Z" fill="#027BFD" fill-opacity="0.4"/>
<path d="M36.9688 31.6875H118.828V36.9688H36.9688V31.6875Z" fill="#027BFD" fill-opacity="0.4"/>
<path d="M36.9688 44.8906H108.266V50.1719H36.9688V44.8906Z" fill="#027BFD" fill-opacity="0.4"/>
<path d="M36.9688 58.0938H108.266V63.375H36.9688V58.0938Z" fill="#027BFD" fill-opacity="0.4"/>
<path d="M36.9688 71.2969H108.266V76.5781H36.9688V71.2969Z" fill="#027BFD" fill-opacity="0.4"/>
<path d="M36.9688 84.5H108.266V89.7812H36.9688V84.5Z" fill="#027BFD" fill-opacity="0.4"/>
<path d="M36.9688 97.7031H108.266V102.984H36.9688V97.7031Z" fill="#027BFD" fill-opacity="0.4"/>
</g>
</g>
<defs>
<linearGradient id="paint0_linear" x1="84.5" y1="-1" x2="84.5" y2="168" gradientUnits="userSpaceOnUse">
<stop stop-color="#027BFD"/>
<stop offset="1" stop-color="#027BFD" stop-opacity="0"/>
</linearGradient>
<clipPath id="clip0">
<rect width="169" height="169" fill="white"/>
</clipPath>
</defs>
</svg>
