<svg width="169" height="169" viewBox="0 0 169 169" fill="none" xmlns="http://www.w3.org/2000/svg">
<g clip-path="url(#clip0)">
<mask id="mask0" style="mask-type:alpha" maskUnits="userSpaceOnUse" x="0" y="-1" width="169" height="169">
<rect y="-1" width="169" height="169" fill="url(#paint0_linear)"/>
</mask>
<g mask="url(#mask0)">
<path d="M5.63333 169H100.234C101.729 169.004 103.163 168.41 104.217 167.349L122.283 149.283C123.343 148.23 123.937 146.795 123.933 145.301V5.63333C123.933 2.52213 121.411 0 118.3 0H5.63333C2.52213 0 0 2.52213 0 5.63333V163.367C0 166.478 2.52213 169 5.63333 169ZM104.217 159.384V152.1C104.217 150.544 105.478 149.283 107.033 149.283H114.317L104.217 159.384ZM5.63333 5.63333H118.3V143.65H107.033C102.367 143.65 98.5833 147.433 98.5833 152.1V163.367H5.63333V5.63333Z" fill="#027BFD" fill-opacity="0.4"/>
<path d="M33.8 45.0666C30.6888 45.0666 28.1667 42.5445 28.1667 39.4333C28.1667 37.8777 26.9056 36.6166 25.35 36.6166C23.7944 36.6166 22.5333 37.8777 22.5333 39.4333C22.5333 45.6557 27.5776 50.6999 33.8 50.6999C40.0224 50.6999 45.0667 45.6557 45.0667 39.4333C45.0667 33.2109 40.0224 28.1666 33.8 28.1666C30.6888 28.1666 28.1667 25.6445 28.1667 22.5333C28.1667 19.4221 30.6888 16.8999 33.8 16.8999C36.9112 16.8999 39.4333 19.4221 39.4333 22.5333C39.4333 24.0889 40.6944 25.3499 42.25 25.3499C43.8056 25.3499 45.0667 24.0889 45.0667 22.5333C45.0667 16.3109 40.0224 11.2666 33.8 11.2666C27.5776 11.2666 22.5333 16.3109 22.5333 22.5333C22.5333 28.7557 27.5776 33.7999 33.8 33.7999C36.9112 33.7999 39.4333 36.3221 39.4333 39.4333C39.4333 42.5445 36.9112 45.0666 33.8 45.0666Z" fill="#027BFD" fill-opacity="0.4"/>
<path d="M56.3332 50.6999H70.4165C71.9721 50.6999 73.2332 49.4389 73.2332 47.8833C73.2332 46.3277 71.9721 45.0666 70.4165 45.0666H56.3332V33.7999H64.7832C66.3388 33.7999 67.5998 32.5389 67.5998 30.9833C67.5998 29.4277 66.3388 28.1666 64.7832 28.1666H56.3332V16.8999H70.4165C71.9721 16.8999 73.2332 15.6389 73.2332 14.0833C73.2332 12.5277 71.9721 11.2666 70.4165 11.2666H56.3332C53.222 11.2666 50.6998 13.7887 50.6998 16.8999V45.0666C50.6998 48.1778 53.222 50.6999 56.3332 50.6999Z" fill="#027BFD" fill-opacity="0.4"/>
<path d="M90.1334 50.6999C96.3558 50.6999 101.4 45.6557 101.4 39.4333V22.5333C101.4 16.3109 96.3558 11.2666 90.1334 11.2666C83.911 11.2666 78.8667 16.3109 78.8667 22.5333V39.4333C78.8667 45.6557 83.911 50.6999 90.1334 50.6999ZM84.5 22.5333C84.5 19.4221 87.0222 16.8999 90.1334 16.8999C93.2446 16.8999 95.7667 19.4221 95.7667 22.5333V39.4333C95.7667 42.5445 93.2446 45.0666 90.1334 45.0666C87.0222 45.0666 84.5 42.5445 84.5 39.4333V22.5333Z" fill="#027BFD" fill-opacity="0.4"/>
<path d="M16.9 61.9667H107.033C108.589 61.9667 109.85 60.7056 109.85 59.15C109.85 57.5944 108.589 56.3334 107.033 56.3334H16.9C15.3444 56.3334 14.0834 57.5944 14.0834 59.15C14.0834 60.7056 15.3444 61.9667 16.9 61.9667Z" fill="#027BFD" fill-opacity="0.4"/>
<path d="M16.9 73.2333H107.033C108.589 73.2333 109.85 71.9723 109.85 70.4167C109.85 68.861 108.589 67.6 107.033 67.6H16.9C15.3444 67.6 14.0834 68.861 14.0834 70.4167C14.0834 71.9723 15.3444 73.2333 16.9 73.2333Z" fill="#027BFD" fill-opacity="0.4"/>
<path d="M107.034 78.8666H98.5835C97.0279 78.8666 95.7668 80.1276 95.7668 81.6832C95.7668 83.2388 97.0279 84.4999 98.5835 84.4999H107.034C108.589 84.4999 109.85 83.2388 109.85 81.6832C109.85 80.1276 108.589 78.8666 107.034 78.8666Z" fill="#027BFD" fill-opacity="0.4"/>
<path d="M16.9 84.4999H87.3167C88.8723 84.4999 90.1334 83.2388 90.1334 81.6832C90.1334 80.1276 88.8723 78.8666 87.3167 78.8666H16.9C15.3444 78.8666 14.0834 80.1276 14.0834 81.6832C14.0834 83.2388 15.3444 84.4999 16.9 84.4999Z" fill="#027BFD" fill-opacity="0.4"/>
<path d="M107.033 90.1333H47.8833C46.3277 90.1333 45.0667 91.3944 45.0667 92.95C45.0667 94.5055 46.3277 95.7666 47.8833 95.7666H107.033C108.589 95.7666 109.85 94.5055 109.85 92.95C109.85 91.3944 108.589 90.1333 107.033 90.1333Z" fill="#027BFD" fill-opacity="0.4"/>
<path d="M16.9 95.7666H36.6167C38.1723 95.7666 39.4334 94.5055 39.4334 92.95C39.4334 91.3944 38.1723 90.1333 36.6167 90.1333H16.9C15.3444 90.1333 14.0834 91.3944 14.0834 92.95C14.0834 94.5055 15.3444 95.7666 16.9 95.7666Z" fill="#027BFD" fill-opacity="0.4"/>
<path d="M16.9 107.033H107.033C108.589 107.033 109.85 105.772 109.85 104.217C109.85 102.661 108.589 101.4 107.033 101.4H16.9C15.3444 101.4 14.0834 102.661 14.0834 104.217C14.0834 105.772 15.3444 107.033 16.9 107.033Z" fill="#027BFD" fill-opacity="0.4"/>
<path d="M107.033 112.667H87.3167C85.7611 112.667 84.5 113.928 84.5 115.483C84.5 117.039 85.7611 118.3 87.3167 118.3H107.033C108.589 118.3 109.85 117.039 109.85 115.483C109.85 113.928 108.589 112.667 107.033 112.667Z" fill="#027BFD" fill-opacity="0.4"/>
<path d="M16.9 118.3H76.05C77.6057 118.3 78.8667 117.039 78.8667 115.483C78.8667 113.928 77.6057 112.667 76.05 112.667H16.9C15.3444 112.667 14.0834 113.928 14.0834 115.483C14.0834 117.039 15.3444 118.3 16.9 118.3Z" fill="#027BFD" fill-opacity="0.4"/>
<path d="M107.033 123.933H59.15C57.5944 123.933 56.3334 125.194 56.3334 126.75C56.3334 128.306 57.5944 129.567 59.15 129.567H107.033C108.589 129.567 109.85 128.306 109.85 126.75C109.85 125.194 108.589 123.933 107.033 123.933Z" fill="#027BFD" fill-opacity="0.4"/>
<path d="M16.9 129.567H47.8834C49.439 129.567 50.7001 128.306 50.7001 126.75C50.7001 125.194 49.439 123.933 47.8834 123.933H16.9C15.3444 123.933 14.0834 125.194 14.0834 126.75C14.0834 128.306 15.3444 129.567 16.9 129.567Z" fill="#027BFD" fill-opacity="0.4"/>
<path d="M98.5834 138.017C98.5834 136.461 97.3223 135.2 95.7667 135.2H16.9C15.3444 135.2 14.0834 136.461 14.0834 138.017C14.0834 139.572 15.3444 140.833 16.9 140.833H95.7667C97.3223 140.833 98.5834 139.572 98.5834 138.017Z" fill="#027BFD" fill-opacity="0.4"/>
<path d="M90.1334 146.467H16.9C15.3444 146.467 14.0834 147.728 14.0834 149.283C14.0834 150.839 15.3444 152.1 16.9 152.1H90.1334C91.689 152.1 92.9501 150.839 92.9501 149.283C92.9501 147.728 91.689 146.467 90.1334 146.467Z" fill="#027BFD" fill-opacity="0.4"/>
<path d="M166.183 25.35C164.628 25.35 163.367 26.611 163.367 28.1666V30.9833H157.733C157.719 27.4152 155.464 24.2409 152.1 23.0516V16.9C152.1 12.2331 148.317 8.44995 143.65 8.44995C138.983 8.44995 135.2 12.2331 135.2 16.9V23.0516C131.836 24.2409 129.581 27.4152 129.567 30.9833V126.75C129.567 127.12 129.641 127.487 129.784 127.829V127.846L138.428 148.658C138.91 149.786 139.755 150.72 140.828 151.314V157.733C140.828 159.289 142.089 160.55 143.644 160.55C145.2 160.55 146.461 159.289 146.461 157.733V151.317C147.535 150.722 148.38 149.786 148.864 148.658L157.514 127.832C157.657 127.489 157.732 127.121 157.733 126.75V36.6166H163.367V76.05C163.367 77.6056 164.628 78.8666 166.183 78.8666C167.739 78.8666 169 77.6056 169 76.05V28.1666C169 26.611 167.739 25.35 166.183 25.35ZM140.833 16.9C140.833 15.3443 142.094 14.0833 143.65 14.0833C145.206 14.0833 146.467 15.3443 146.467 16.9V22.5333H140.833V16.9ZM135.2 30.9833C135.2 29.4277 136.461 28.1666 138.017 28.1666H149.283C150.839 28.1666 152.1 29.4277 152.1 30.9833V123.933H135.2V30.9833ZM143.65 146.467H143.625L136.608 129.567H150.692L143.65 146.467Z" fill="#027BFD" fill-opacity="0.4"/>
<path d="M143.65 33.7999C142.095 33.7999 140.833 35.061 140.833 36.6166V42.2499C140.833 43.8055 142.095 45.0666 143.65 45.0666C145.206 45.0666 146.467 43.8055 146.467 42.2499V36.6166C146.467 35.061 145.206 33.7999 143.65 33.7999Z" fill="#027BFD" fill-opacity="0.4"/>
<path d="M143.65 50.7001C142.095 50.7001 140.833 51.9611 140.833 53.5167V87.3167C140.833 88.8724 142.095 90.1334 143.65 90.1334C145.206 90.1334 146.467 88.8724 146.467 87.3167V53.5167C146.467 51.9611 145.206 50.7001 143.65 50.7001Z" fill="#027BFD" fill-opacity="0.4"/>
</g>
</g>
<defs>
<linearGradient id="paint0_linear" x1="84.5" y1="-1" x2="84.5" y2="168" gradientUnits="userSpaceOnUse">
<stop stop-color="#027BFD"/>
<stop offset="1" stop-color="#027BFD" stop-opacity="0"/>
</linearGradient>
<clipPath id="clip0">
<rect width="169" height="169" fill="white"/>
</clipPath>
</defs>
</svg>
