<svg width="169" height="169" viewBox="0 0 169 169" fill="none" xmlns="http://www.w3.org/2000/svg">
<g clip-path="url(#clip0)">
<mask id="mask0" style="mask-type:alpha" maskUnits="userSpaceOnUse" x="0" y="-1" width="169" height="169">
<rect y="-1" width="169" height="169" fill="url(#paint0_linear)"/>
</mask>
<g mask="url(#mask0)">
<path d="M155.797 113.547H116.188C115.683 113.547 115.189 113.691 114.764 113.963C114.339 114.235 114.001 114.623 113.79 115.081L104.676 134.828L94.7374 137.312H75.1888L57.7624 116.014C55.8394 113.657 53.4281 111.744 50.6947 110.409C47.9613 109.074 44.9709 108.348 41.9296 108.28V107.829C43.5611 107.275 44.9785 106.225 45.983 104.825C46.9876 103.425 47.5289 101.746 47.5312 100.023V84.0457C49.2931 83.423 50.778 82.1974 51.7236 80.5856C52.6691 78.9738 53.0144 77.0796 52.6984 75.2378C52.3824 73.3961 51.4254 71.7253 49.9966 70.521C48.5679 69.3166 46.7593 68.6561 44.8906 68.6563H25.6102C22.9473 68.6563 20.3321 69.3629 18.0316 70.7041C15.7311 72.0452 13.8277 73.9728 12.5157 76.2901C11.2037 78.6074 10.5301 81.2313 10.5637 83.894C10.5973 86.5567 11.3368 89.1627 12.7069 91.4462L18.4844 101.075V109.038C14.6726 110.18 11.33 112.519 8.95182 115.709C6.57369 118.899 5.28659 122.771 5.28125 126.75V163.719H10.5625V126.75C10.5665 123.25 11.9588 119.894 14.434 117.418C16.9092 114.943 20.2652 113.551 23.7656 113.547H41.4126C43.76 113.543 46.0788 114.062 48.2 115.068C50.3213 116.073 52.1917 117.539 53.6749 119.358L71.8939 141.625C72.1415 141.928 72.4534 142.172 72.8068 142.339C73.1602 142.507 73.5464 142.594 73.9375 142.594H87.1406V153.156H68.0791C66.9688 153.156 65.871 152.922 64.8567 152.47C63.8424 152.018 62.9342 151.359 62.1909 150.534L41.5721 127.624L37.6466 131.157L47.5312 142.14V163.719H52.8125V148.008L58.2654 154.067C59.5043 155.442 61.0179 156.541 62.7084 157.294C64.3988 158.047 66.2285 158.436 68.0791 158.438H77.0324C77.58 159.981 78.5917 161.317 79.9286 162.262C81.2656 163.208 82.8624 163.717 84.5 163.719H134.672C136.772 163.716 138.786 162.881 140.271 161.396C141.756 159.911 142.591 157.897 142.594 155.797V151.096L158.194 117.294C158.38 116.892 158.462 116.449 158.431 116.007C158.401 115.565 158.26 115.138 158.021 114.764C157.782 114.391 157.453 114.084 157.065 113.871C156.676 113.658 156.24 113.547 155.797 113.547ZM39.289 102.984C38.9 102.985 38.5146 102.909 38.1552 102.76C37.7958 102.611 37.4695 102.393 37.1952 102.117L34.3281 99.2499V90.5807L38.3819 84.5H42.25V100.023C42.2491 100.808 41.9368 101.561 41.3817 102.116C40.8266 102.671 40.074 102.983 39.289 102.984ZM15.8438 83.7041C15.8467 81.1148 16.8766 78.6323 18.7075 76.8014C20.5384 74.9704 23.0209 73.9405 25.6102 73.9375H44.8906C45.591 73.9375 46.2626 74.2157 46.7578 74.7109C47.253 75.2061 47.5312 75.8778 47.5312 76.5781C47.5312 77.2785 47.253 77.9501 46.7578 78.4453C46.2626 78.9405 45.591 79.2188 44.8906 79.2188H36.9688C36.534 79.2187 36.106 79.3261 35.7228 79.5312C35.3395 79.7363 35.0128 80.0329 34.7717 80.3947L29.4904 88.3165C29.2012 88.7503 29.0469 89.2599 29.0469 89.7812V97.7031H22.62L17.2355 88.7288C16.3249 87.2109 15.8439 85.4742 15.8438 83.7041ZM23.7656 102.984H30.5936L33.4609 105.852C34.356 106.75 35.447 107.428 36.6483 107.833V108.266H23.7656V102.984ZM92.4219 142.594H95.0625C95.2784 142.594 95.4935 142.567 95.703 142.515L105.204 140.139L116.034 146.638C116.081 146.666 116.119 146.705 116.146 146.753C116.173 146.8 116.187 146.854 116.188 146.909C116.188 146.955 116.177 147.002 116.157 147.044C116.137 147.086 116.108 147.124 116.072 147.153C116.036 147.183 115.993 147.204 115.948 147.216C115.902 147.227 115.855 147.228 115.809 147.219L106.143 145.286C105.779 145.213 105.403 145.218 105.041 145.3C104.679 145.382 104.338 145.54 104.041 145.762L94.8865 152.628C94.4289 152.97 93.8733 153.155 93.302 153.156H92.4219V142.594ZM98.0551 156.853L102.984 153.156H108.266V155.797C108.265 156.697 108.419 157.59 108.72 158.438H93.302C95.0155 158.434 96.6822 157.878 98.0551 156.853ZM137.312 155.797C137.312 156.497 137.033 157.168 136.538 157.663C136.043 158.158 135.372 158.437 134.672 158.438H116.188C115.487 158.437 114.816 158.158 114.321 157.663C113.826 157.168 113.548 156.497 113.547 155.797V153.156H137.312V155.797ZM138.264 147.875H121.377C121.583 146.761 121.441 145.61 120.971 144.579C120.502 143.547 119.727 142.685 118.751 142.109L109.652 136.649L117.877 118.828H151.67L138.264 147.875Z" fill="#027BFD" fill-opacity="0.4"/>
<path d="M155.797 5.28125H31.6875C29.5872 5.28362 27.5736 6.11901 26.0885 7.60414C24.6034 9.08926 23.768 11.1028 23.7656 13.2031V63.375H29.0469V13.2031C29.0477 12.503 29.3261 11.8318 29.8212 11.3368C30.3162 10.8418 30.9874 10.5633 31.6875 10.5625H155.797C156.497 10.5633 157.168 10.8418 157.663 11.3368C158.158 11.8318 158.437 12.503 158.438 13.2031V100.344C158.437 101.044 158.158 101.715 157.663 102.21C157.168 102.705 156.497 102.984 155.797 102.984H52.8125V108.266H155.797C157.897 108.263 159.911 107.428 161.396 105.943C162.881 104.458 163.716 102.444 163.719 100.344V13.2031C163.716 11.1028 162.881 9.08926 161.396 7.60414C159.911 6.11901 157.897 5.28362 155.797 5.28125Z" fill="#027BFD" fill-opacity="0.4"/>
<path d="M34.3281 18.4844C35.7865 18.4844 36.9688 17.3021 36.9688 15.8438C36.9688 14.3854 35.7865 13.2031 34.3281 13.2031C32.8697 13.2031 31.6875 14.3854 31.6875 15.8438C31.6875 17.3021 32.8697 18.4844 34.3281 18.4844Z" fill="#027BFD" fill-opacity="0.4"/>
<path d="M42.25 18.4844C43.7084 18.4844 44.8906 17.3021 44.8906 15.8438C44.8906 14.3854 43.7084 13.2031 42.25 13.2031C40.7916 13.2031 39.6094 14.3854 39.6094 15.8438C39.6094 17.3021 40.7916 18.4844 42.25 18.4844Z" fill="#027BFD" fill-opacity="0.4"/>
<path d="M50.1719 18.4844C51.6303 18.4844 52.8125 17.3021 52.8125 15.8438C52.8125 14.3854 51.6303 13.2031 50.1719 13.2031C48.7135 13.2031 47.5312 14.3854 47.5312 15.8438C47.5312 17.3021 48.7135 18.4844 50.1719 18.4844Z" fill="#027BFD" fill-opacity="0.4"/>
<path d="M142.594 31.6875H126.75C126.05 31.6875 125.378 31.9657 124.883 32.4609C124.388 32.9561 124.109 33.6278 124.109 34.3281V42.25H110.906C110.206 42.25 109.534 42.5282 109.039 43.0234C108.544 43.5186 108.266 44.1903 108.266 44.8906V55.4531H95.0625C94.3622 55.4531 93.6905 55.7313 93.1953 56.2266C92.7001 56.7218 92.4219 57.3934 92.4219 58.0938V68.6562H79.2188C78.5184 68.6563 77.8468 68.9345 77.3516 69.4297C76.8563 69.9249 76.5781 70.5965 76.5781 71.2969V79.2188H63.375C62.6747 79.2188 62.003 79.497 61.5078 79.9922C61.0126 80.4874 60.7344 81.159 60.7344 81.8594V92.4219H55.4531V97.7031H150.516V92.4219H145.234V34.3281C145.234 33.6278 144.956 32.9561 144.461 32.4609C143.966 31.9657 143.294 31.6875 142.594 31.6875ZM66.0156 84.5H76.5781V92.4219H66.0156V84.5ZM81.8594 73.9375H92.4219V92.4219H81.8594V73.9375ZM97.7031 60.7344H108.266V92.4219H97.7031V60.7344ZM113.547 47.5312H124.109V92.4219H113.547V47.5312ZM139.953 92.4219H129.391V36.9688H139.953V92.4219Z" fill="#027BFD" fill-opacity="0.4"/>
<path d="M47.5312 63.375H58.548C59.2379 65.327 60.6647 66.9314 62.5228 67.8445C64.3809 68.7577 66.5227 68.907 68.4896 68.2606C70.4565 67.6142 72.0921 66.2234 73.0462 64.386C74.0004 62.5485 74.1972 60.4106 73.5946 58.4299L87.328 48.3106C88.6884 49.4546 90.3941 50.1077 92.1707 50.1648C93.9472 50.2219 95.6914 49.6796 97.1223 48.6252C98.5533 47.5708 99.588 46.0656 100.06 44.3518C100.532 42.6381 100.413 40.8155 99.7233 39.1773L111.744 30.3201C112.746 31.0006 113.89 31.442 115.09 31.6105C116.289 31.779 117.511 31.67 118.662 31.2919C119.812 30.9139 120.861 30.2768 121.727 29.4298C122.592 28.5827 123.252 27.5483 123.655 26.4062H139.953V21.125H123.655C122.965 19.1729 121.538 17.5686 119.68 16.6554C117.822 15.7423 115.68 15.593 113.714 16.2394C111.747 16.8858 110.111 18.2766 109.157 20.114C108.203 21.9514 108.006 24.0894 108.609 26.0701L96.14 35.2575C94.8217 34.555 93.3315 34.2397 91.8417 34.3482C90.3519 34.4567 88.9231 34.9845 87.7205 35.8706C86.5179 36.7567 85.5906 37.965 85.0456 39.3558C84.5006 40.7466 84.3603 42.2633 84.6408 43.7305L70.4594 54.1799C69.4575 53.4994 68.3128 53.0579 67.1134 52.8895C65.914 52.721 64.692 52.83 63.5414 53.208C62.3908 53.5861 61.3422 54.2232 60.4765 55.0702C59.6108 55.9172 58.9511 56.9516 58.548 58.0937H47.5312V63.375ZM116.188 21.125C116.71 21.125 117.22 21.2799 117.655 21.57C118.089 21.8602 118.427 22.2726 118.627 22.7551C118.827 23.2376 118.879 23.7685 118.777 24.2808C118.675 24.793 118.424 25.2635 118.055 25.6328C117.685 26.0021 117.215 26.2536 116.703 26.3555C116.19 26.4574 115.659 26.4051 115.177 26.2052C114.694 26.0054 114.282 25.6669 113.992 25.2327C113.702 24.7984 113.547 24.2879 113.547 23.7656C113.548 23.0655 113.826 22.3943 114.321 21.8993C114.816 21.4043 115.487 21.1258 116.188 21.125ZM92.4219 39.6094C92.9441 39.6094 93.4547 39.7642 93.8889 40.0544C94.3232 40.3445 94.6616 40.7569 94.8615 41.2395C95.0614 41.722 95.1137 42.2529 95.0118 42.7651C94.9099 43.2774 94.6584 43.7479 94.2891 44.1172C93.9198 44.4865 93.4493 44.738 92.937 44.8399C92.4248 44.9418 91.8939 44.8895 91.4114 44.6896C90.9288 44.4897 90.5164 44.1513 90.2263 43.717C89.9361 43.2828 89.7812 42.7723 89.7812 42.25C89.7821 41.5499 90.0605 40.8787 90.5556 40.3837C91.0506 39.8886 91.7218 39.6102 92.4219 39.6094ZM66.0156 58.0937C66.5379 58.0937 67.0484 58.2486 67.4827 58.5388C67.9169 58.8289 68.2554 59.2413 68.4552 59.7238C68.6551 60.2063 68.7074 60.7373 68.6055 61.2495C68.5036 61.7617 68.2521 62.2323 67.8828 62.6016C67.5135 62.9709 67.043 63.2224 66.5308 63.3242C66.0186 63.4261 65.4876 63.3738 65.0051 63.174C64.5226 62.9741 64.1102 62.6357 63.82 62.2014C63.5299 61.7672 63.375 61.2566 63.375 60.7344C63.3758 60.0343 63.6543 59.3631 64.1493 58.868C64.6443 58.373 65.3155 58.0945 66.0156 58.0937Z" fill="#027BFD" fill-opacity="0.4"/>
<path d="M150.516 21.125H145.234V26.4062H150.516V21.125Z" fill="#027BFD" fill-opacity="0.4"/>
<path d="M42.25 58.0938H36.9688V63.375H42.25V58.0938Z" fill="#027BFD" fill-opacity="0.4"/>
</g>
</g>
<defs>
<linearGradient id="paint0_linear" x1="84.5" y1="-1" x2="84.5" y2="168" gradientUnits="userSpaceOnUse">
<stop stop-color="#027BFD"/>
<stop offset="1" stop-color="#027BFD" stop-opacity="0"/>
</linearGradient>
<clipPath id="clip0">
<rect width="169" height="169" fill="white"/>
</clipPath>
</defs>
</svg>
