<svg width="169" height="169" viewBox="0 0 169 169" fill="none" xmlns="http://www.w3.org/2000/svg">
<g clip-path="url(#clip0)">
<mask id="mask0" style="mask-type:alpha" maskUnits="userSpaceOnUse" x="0" y="-1" width="169" height="169">
<rect y="-1" width="169" height="169" fill="url(#paint0_linear)"/>
</mask>
<g mask="url(#mask0)">
<path d="M161.553 103.248C161.059 101.9 160.293 100.667 159.303 99.627C158.313 98.5867 157.119 97.7611 155.797 97.2014V23.7656C155.79 21.6665 154.954 19.6552 153.469 18.1709C151.985 16.6867 149.974 15.85 147.875 15.8438H63.3748C61.2757 15.85 59.2644 16.6867 57.7801 18.1709C56.2958 19.6552 55.4592 21.6665 55.4529 23.7656V97.7823C52.4569 99.1442 49.5929 100.779 46.8973 102.668L38.6057 108.477L35.569 104.146C35.1661 103.577 34.5555 103.188 33.8689 103.065C33.1823 102.941 32.4746 103.093 31.8985 103.486L5.9412 121.654C5.36988 122.061 4.98089 122.676 4.8575 123.367C4.73412 124.058 4.88615 124.77 5.28104 125.35L32.5587 164.273C32.9585 164.847 33.5694 165.238 34.2575 165.362C34.9455 165.486 35.6546 165.332 36.2292 164.933L62.1865 146.766C62.7567 146.357 63.1448 145.742 63.2681 145.052C63.3915 144.361 63.2402 143.65 62.8467 143.069L61.3415 140.93C66.4368 137.449 72.6967 136.112 78.7696 137.207L83.47 137.999C89.4081 139.054 95.5194 138.526 101.189 136.467L155.242 116.795C156.546 116.32 157.744 115.593 158.767 114.656C159.791 113.718 160.619 112.588 161.205 111.33C161.791 110.071 162.124 108.71 162.183 107.324C162.243 105.937 162.029 104.552 161.553 103.248ZM118.828 21.125H147.875C148.575 21.125 149.247 21.4032 149.742 21.8984C150.237 22.3936 150.515 23.0653 150.515 23.7656V31.6875H118.828V21.125ZM97.7029 21.125H113.547V43.808L107.5 37.7345C107.001 37.2398 106.327 36.9622 105.625 36.9622C104.922 36.9622 104.249 37.2398 103.75 37.7345L97.7029 43.808V21.125ZM60.7342 23.7656C60.7342 23.0653 61.0124 22.3936 61.5076 21.8984C62.0028 21.4032 62.6745 21.125 63.3748 21.125H92.4217V31.6875H60.7342V23.7656ZM60.7342 36.9688H92.4217V50.1719C92.4197 50.6942 92.5747 51.2052 92.8666 51.6384C93.1586 52.0715 93.5739 52.407 94.0589 52.6012C94.5397 52.8035 95.0698 52.8587 95.582 52.76C96.0943 52.6613 96.5658 52.4131 96.9371 52.0467L105.625 43.3327L114.312 52.0467C114.812 52.5393 115.486 52.8145 116.187 52.8125C116.534 52.8216 116.877 52.7493 117.191 52.6012C117.676 52.407 118.091 52.0715 118.383 51.6384C118.675 51.2052 118.83 50.6942 118.828 50.1719V36.9688H150.515V96.4092C149.669 96.4808 148.835 96.6582 148.033 96.9373L138.685 100.344H120.122C118.729 99.1543 117.041 98.3608 115.237 98.0464L88.6984 93.3725C80.1239 91.8559 71.3127 92.3806 62.9787 94.9041L62.5034 95.0625C61.896 95.2209 61.3151 95.4586 60.7342 95.6698V36.9688ZM35.3578 159.098L11.1432 124.479L32.7699 109.322L56.9845 143.94L35.3578 159.098ZM156.853 107.79C156.69 108.704 156.289 109.558 155.691 110.267C155.093 110.976 154.319 111.516 153.447 111.83L99.3929 131.503C94.5943 133.247 89.4205 133.693 84.3942 132.797L79.6674 132.005C72.2194 130.664 64.5429 132.315 58.3048 136.6L41.6425 112.781L49.934 106.998C54.212 103.977 58.9457 101.659 63.9557 100.132L64.431 100C72.0016 97.7038 80.0039 97.2065 87.8006 98.5481L114.312 103.222C115.699 103.477 116.93 104.264 117.745 105.414C118.207 106.093 118.506 106.871 118.617 107.685C118.752 108.424 118.707 109.185 118.485 109.903C118.12 111.166 117.3 112.249 116.183 112.942C115.066 113.635 113.731 113.888 112.438 113.653L83.8925 108.609L82.9946 113.785L111.513 118.828C112.13 118.955 112.759 119.017 113.388 119.013C115.662 119.011 117.874 118.278 119.7 116.923C121.526 115.568 122.868 113.663 123.528 111.487L149.829 101.902C151.146 101.426 152.597 101.493 153.865 102.087C155.132 102.681 156.112 103.754 156.589 105.07C156.927 105.935 157.018 106.877 156.853 107.79Z" fill="#027BFD" fill-opacity="0.4"/>
</g>
</g>
<defs>
<linearGradient id="paint0_linear" x1="84.5" y1="-1" x2="84.5" y2="168" gradientUnits="userSpaceOnUse">
<stop stop-color="#027BFD"/>
<stop offset="1" stop-color="#027BFD" stop-opacity="0"/>
</linearGradient>
<clipPath id="clip0">
<rect width="169" height="169" fill="white"/>
</clipPath>
</defs>
</svg>
