<svg width="169" height="169" viewBox="0 0 169 169" fill="none" xmlns="http://www.w3.org/2000/svg">
<g clip-path="url(#clip0)">
<mask id="mask0" style="mask-type:alpha" maskUnits="userSpaceOnUse" x="0" y="-1" width="169" height="169">
<rect y="-1" width="169" height="169" fill="url(#paint0_linear)"/>
</mask>
<g mask="url(#mask0)">
<path d="M110.785 38.5666C96.3553 38.5666 84.7122 50.2071 84.7122 64.6401C84.7122 79.0708 96.353 90.7133 110.786 90.7136H110.786C125.216 90.7136 136.859 79.0734 136.859 64.6401C136.859 50.2098 125.219 38.5666 110.785 38.5666ZM110.786 85.7625C99.0923 85.7625 89.6633 76.3361 89.6633 64.6401C89.6633 52.9471 99.089 43.5178 110.786 43.5178C122.48 43.5178 131.907 52.9438 131.908 64.6401C131.908 76.3338 122.482 85.7625 110.786 85.7625Z" fill="#027BFD" fill-opacity="0.4"/>
<path d="M163.283 102.844L158.148 97.7097C157.181 96.7426 155.614 96.7429 154.647 97.7097C153.68 98.6765 153.68 100.244 154.647 101.211L159.782 106.345C161.797 108.361 161.797 111.622 159.782 113.636C157.766 115.651 154.507 115.651 152.491 113.636C148.187 109.331 136.419 97.5635 132.568 93.7122C135.315 91.6508 137.785 89.1845 139.862 86.4247L146.478 93.0411C147.445 94.0079 149.012 94.0079 149.979 93.0411C150.946 92.0743 150.946 90.5068 149.979 89.5403L142.615 82.1766C145.551 76.8676 147.113 70.8744 147.113 64.6402C147.113 57.3128 144.957 50.3174 140.947 44.376V22.2483C140.947 17.9711 137.467 14.4914 133.19 14.4914H126.938V7.75684C126.938 3.47968 123.458 0 119.181 0H50.1853C48.8182 0 47.7098 1.1084 47.7098 2.47559C47.7098 3.84277 48.8182 4.95117 50.1853 4.95117H119.181C120.728 4.95117 121.987 6.20976 121.987 7.75684V14.4914H24.5201C20.243 14.4914 16.7633 17.9711 16.7633 22.2483V149.557H10.5116C8.96452 149.557 7.70593 148.298 7.70593 146.751V7.75684C7.70593 6.20976 8.96452 4.95117 10.5116 4.95117H38.6326C39.9998 4.95117 41.1082 3.84277 41.1082 2.47559C41.1082 1.1084 39.9998 0 38.6326 0H10.5116C6.23444 0 2.75476 3.47968 2.75476 7.75684V146.752C2.75476 151.029 6.23444 154.509 10.5116 154.509H16.7633V161.243C16.7633 165.52 20.243 169 24.5201 169H133.189C137.467 169 140.946 165.52 140.946 161.243V109.094L148.99 117.137C152.94 121.087 159.331 121.088 163.283 117.137C167.232 113.188 167.233 106.795 163.283 102.844ZM89.7016 87.8731C82.9489 81.7379 79.4253 73.2797 79.4253 64.6402C79.4253 47.2923 93.4391 33.2795 110.786 33.2795C128.113 33.2795 142.161 47.2801 142.161 64.6402C142.161 91.4306 109.955 106.301 89.7016 87.8731ZM135.995 161.243C135.995 162.79 134.736 164.049 133.189 164.049H24.5201C22.973 164.049 21.7144 162.79 21.7144 161.243V152.033V22.2483C21.7144 20.7012 22.973 19.4426 24.5201 19.4426H124.462H133.189C134.736 19.4426 135.995 20.7012 135.995 22.2483V38.4845C129.362 32.0843 120.487 28.3138 110.786 28.3138C79.4382 28.3138 62.7778 65.6849 83.8127 88.9735C89.6954 95.4863 97.8602 99.7846 106.876 100.752C113.996 101.516 121.589 100.161 128.314 96.4607L135.995 104.142V161.243H135.995Z" fill="#027BFD" fill-opacity="0.4"/>
<path d="M34.2023 39.7424H64.8461C66.2133 39.7424 67.3217 38.634 67.3217 37.2668C67.3217 35.8997 66.2133 34.7913 64.8461 34.7913H34.2023C32.8351 34.7913 31.7267 35.8997 31.7267 37.2668C31.7267 38.634 32.8351 39.7424 34.2023 39.7424Z" fill="#027BFD" fill-opacity="0.4"/>
<path d="M34.2023 53.7773H64.8461C66.2133 53.7773 67.3217 52.6689 67.3217 51.3017C67.3217 49.9345 66.2133 48.8261 64.8461 48.8261H34.2023C32.8351 48.8261 31.7267 49.9345 31.7267 51.3017C31.7267 52.6689 32.8351 53.7773 34.2023 53.7773Z" fill="#027BFD" fill-opacity="0.4"/>
<path d="M34.2023 67.8122H64.8461C66.2133 67.8122 67.3217 66.7038 67.3217 65.3366C67.3217 63.9694 66.2133 62.861 64.8461 62.861H34.2023C32.8351 62.861 31.7267 63.9694 31.7267 65.3366C31.7267 66.7038 32.8351 67.8122 34.2023 67.8122Z" fill="#027BFD" fill-opacity="0.4"/>
<path d="M34.2023 82.7826H64.8461C66.2133 82.7826 67.3217 81.6742 67.3217 80.307C67.3217 78.9398 66.2133 77.8314 64.8461 77.8314H34.2023C32.8351 77.8314 31.7267 78.9398 31.7267 80.307C31.7267 81.6742 32.8351 82.7826 34.2023 82.7826Z" fill="#027BFD" fill-opacity="0.4"/>
<path d="M108.259 152.079H82.1435L79.1665 145.355C84.8026 140.177 88.3424 132.751 88.3424 124.512C88.3424 120.507 87.5014 116.697 85.9946 113.24H109.85C111.217 113.24 112.326 112.132 112.326 110.764C112.326 109.397 111.217 108.289 109.85 108.289H83.2113C78.0862 100.989 69.6111 96.2046 60.0342 96.2046C44.4252 96.2046 31.7264 108.903 31.7264 124.512C31.7264 140.122 44.4252 152.821 60.0342 152.821C65.5779 152.821 70.7499 151.212 75.1211 148.448L78.2684 155.557C78.6648 156.453 79.5524 157.031 80.5321 157.031H108.259C109.626 157.031 110.734 155.922 110.734 154.555C110.734 153.188 109.626 152.079 108.259 152.079ZM57.5593 124.512V147.739C45.8402 146.498 36.6782 136.555 36.6782 124.512C36.6782 111.633 47.1559 101.156 60.0349 101.156C66.6153 101.156 72.5647 103.895 76.8141 108.289H72.9512C71.584 108.289 70.4756 109.397 70.4756 110.764C70.4756 112.132 71.584 113.24 72.9512 113.24H80.4806C81.9534 115.9 82.9268 118.874 83.2615 122.037H60.0349C58.6674 122.037 57.5593 123.145 57.5593 124.512ZM62.5105 147.739V126.988H83.2615C82.7099 132.197 80.436 136.898 77.0253 140.517L75.2145 136.427C74.661 135.176 73.1984 134.611 71.9487 135.165C70.6984 135.718 70.1336 137.181 70.6872 138.431L73.0921 143.864C70.0069 145.952 66.4008 147.327 62.5105 147.739Z" fill="#027BFD" fill-opacity="0.4"/>
<path d="M125.643 122.037H109.85C108.483 122.037 107.375 123.145 107.375 124.512C107.375 125.88 108.483 126.988 109.85 126.988H125.643C127.01 126.988 128.118 125.88 128.118 124.512C128.118 123.145 127.01 122.037 125.643 122.037Z" fill="#027BFD" fill-opacity="0.4"/>
<path d="M125.643 134.2H109.85C108.483 134.2 107.375 135.309 107.375 136.676C107.375 138.043 108.483 139.151 109.85 139.151H125.643C127.01 139.151 128.118 138.043 128.118 136.676C128.118 135.309 127.01 134.2 125.643 134.2Z" fill="#027BFD" fill-opacity="0.4"/>
<path d="M119.339 55.1224L105.701 68.2463L102.736 62.2534C102.13 61.0278 100.645 60.5261 99.4192 61.1325C98.1937 61.7388 97.6919 63.2238 98.2983 64.4491L102.763 73.4721C103.502 74.966 105.489 75.3222 106.698 74.158L122.772 58.6899C123.757 57.7416 123.787 56.1747 122.839 55.1894C121.891 54.2045 120.324 54.1747 119.339 55.1224Z" fill="#027BFD" fill-opacity="0.4"/>
</g>
</g>
<defs>
<linearGradient id="paint0_linear" x1="84.5" y1="-1" x2="84.5" y2="168" gradientUnits="userSpaceOnUse">
<stop stop-color="#027BFD"/>
<stop offset="1" stop-color="#027BFD" stop-opacity="0"/>
</linearGradient>
<clipPath id="clip0">
<rect width="169" height="169" fill="white"/>
</clipPath>
</defs>
</svg>
