<svg width="169" height="169" viewBox="0 0 169 169" fill="none" xmlns="http://www.w3.org/2000/svg">
<g clip-path="url(#clip0)">
<mask id="mask0" style="mask-type:alpha" maskUnits="userSpaceOnUse" x="0" y="-1" width="169" height="169">
<rect y="-1" width="169" height="169" fill="url(#paint0_linear)"/>
</mask>
<g mask="url(#mask0)">
<path d="M18.4844 163.719H55.4531C58.4954 163.715 61.4434 162.662 63.8 160.738C66.1567 158.814 67.7779 156.136 68.3906 153.156H161.078V147.875H153.156V36.9688C153.156 36.2684 152.878 35.5968 152.383 35.1016C151.888 34.6064 151.216 34.3282 150.516 34.3281H129.391C128.69 34.3282 128.019 34.6064 127.523 35.1016C127.028 35.5968 126.75 36.2684 126.75 36.9688V60.7344H108.266C107.565 60.7344 106.894 61.0126 106.398 61.5078C105.903 62.003 105.625 62.6747 105.625 63.375V87.1406H87.1406C86.4403 87.1407 85.7687 87.4189 85.2735 87.9141C84.7783 88.4093 84.5 89.0809 84.5 89.7812V113.547H68.6562V95.0625C68.6549 92.8249 68.0849 90.6244 66.9998 88.6676C65.9147 86.7107 64.3501 85.0618 62.4529 83.8755L72.3909 73.9375H81.8594C82.5597 73.9375 83.2313 73.6592 83.7265 73.164C84.2217 72.6688 84.5 71.9972 84.5 71.2969V61.8284L98.7971 47.5312H108.266C108.966 47.5312 109.638 47.253 110.133 46.7578C110.628 46.2626 110.906 45.591 110.906 44.8906V35.4222L125.203 21.125H134.672C135.372 21.125 136.044 20.8467 136.539 20.3515C137.034 19.8563 137.312 19.1847 137.312 18.4844V15.8438H153.156V10.5625H137.312V7.92188C137.312 7.22155 137.034 6.54991 136.539 6.05471C136.044 5.5595 135.372 5.28128 134.672 5.28125H124.109C123.409 5.28128 122.737 5.5595 122.242 6.05471C121.747 6.54991 121.469 7.22155 121.469 7.92188V17.3903L107.172 31.6875H97.7031C97.0028 31.6875 96.3312 31.9658 95.836 32.461C95.3408 32.9562 95.0625 33.6278 95.0625 34.3281V43.7966L80.7654 58.0938H71.2969C70.5965 58.0938 69.9249 58.372 69.4297 58.8672C68.9345 59.3624 68.6563 60.034 68.6562 60.7344V70.2029L56.9167 81.9424C56.4308 81.8878 55.9421 81.8601 55.4531 81.8594H18.4844C14.9839 81.8634 11.628 83.2557 9.15278 85.7309C6.67758 88.2061 5.28525 91.562 5.28125 95.0625V150.516C5.28525 154.016 6.67758 157.372 9.15278 159.847C11.628 162.322 14.9839 163.715 18.4844 163.719ZM132.031 39.6094H147.875V147.875H132.031V39.6094ZM110.906 66.0156H126.75V147.875H110.906V66.0156ZM105.625 92.4219V147.875H89.7812V92.4219H105.625ZM84.5 118.828V147.875H68.6562V118.828H84.5ZM126.75 10.5625H132.031V15.8438H126.75V10.5625ZM100.344 36.9688H105.625V42.25H100.344V36.9688ZM73.9375 63.375H79.2188V68.6562H73.9375V63.375ZM10.5625 95.0625C10.5649 92.9622 11.4003 90.9487 12.8854 89.4635C14.3705 87.9784 16.3841 87.143 18.4844 87.1406H55.4531C57.5534 87.143 59.567 87.9784 61.0521 89.4635C62.5372 90.9487 63.3726 92.9622 63.375 95.0625V150.516C63.3726 152.616 62.5372 154.629 61.0521 156.115C59.567 157.6 57.5534 158.435 55.4531 158.438H18.4844C16.3841 158.435 14.3705 157.6 12.8854 156.115C11.4003 154.629 10.5649 152.616 10.5625 150.516V95.0625Z" fill="#027BFD" fill-opacity="0.4"/>
<path d="M18.4844 110.906H55.4531C56.1535 110.906 56.8251 110.628 57.3203 110.133C57.8155 109.638 58.0937 108.966 58.0938 108.266V95.0625C58.0937 94.3622 57.8155 93.6905 57.3203 93.1953C56.8251 92.7001 56.1535 92.4219 55.4531 92.4219H18.4844C17.784 92.4219 17.1124 92.7001 16.6172 93.1953C16.122 93.6905 15.8438 94.3622 15.8438 95.0625V108.266C15.8438 108.966 16.122 109.638 16.6172 110.133C17.1124 110.628 17.784 110.906 18.4844 110.906ZM21.125 97.7031H52.8125V105.625H21.125V97.7031Z" fill="#027BFD" fill-opacity="0.4"/>
<path d="M52.8125 116.188H21.125C20.4247 116.188 19.753 116.466 19.2578 116.961C18.7626 117.456 18.4844 118.128 18.4844 118.828V150.516C18.4844 151.216 18.7626 151.888 19.2578 152.383C19.753 152.878 20.4247 153.156 21.125 153.156H52.8125C53.5128 153.156 54.1845 152.878 54.6797 152.383C55.1749 151.888 55.4531 151.216 55.4531 150.516V118.828C55.4531 118.128 55.1749 117.456 54.6797 116.961C54.1845 116.466 53.5128 116.188 52.8125 116.188ZM23.7656 121.469H34.3281V132.031H23.7656V121.469ZM23.7656 137.312H34.3281V147.875H23.7656V137.312ZM50.1719 147.875H39.6094V121.469H50.1719V147.875Z" fill="#027BFD" fill-opacity="0.4"/>
<path d="M113.547 158.438H124.109V163.719H113.547V158.438Z" fill="#027BFD" fill-opacity="0.4"/>
<path d="M92.4219 158.438H102.984V163.719H92.4219V158.438Z" fill="#027BFD" fill-opacity="0.4"/>
<path d="M71.2969 158.438H81.8594V163.719H71.2969V158.438Z" fill="#027BFD" fill-opacity="0.4"/>
<path d="M134.672 158.438H145.234V163.719H134.672V158.438Z" fill="#027BFD" fill-opacity="0.4"/>
<path d="M158.438 10.5625H163.719V15.8438H158.438V10.5625Z" fill="#027BFD" fill-opacity="0.4"/>
</g>
</g>
<defs>
<linearGradient id="paint0_linear" x1="84.5" y1="-1" x2="84.5" y2="168" gradientUnits="userSpaceOnUse">
<stop stop-color="#027BFD"/>
<stop offset="1" stop-color="#027BFD" stop-opacity="0"/>
</linearGradient>
<clipPath id="clip0">
<rect width="169" height="169" fill="white"/>
</clipPath>
</defs>
</svg>
